PathFileType	4	(X/Y/Z)	C:/Users/beibeiliu/ov580/test_trc/User1\sequence.17_training_dense_right.trc
DataRate	CameraRate	NumFrames	NumMarkers	Units	OrigDataRate	OrigDataStartFrame	OrigNumFrames
120	120	12	19	mm	120	147	292
Frame#	Time	ThumbCMC			ThumbMCP			ThumbIP			ThumbTip			IndexMCP			IndexPIP			IndexTip			MiddleMCP			MiddlePIP			MiddleTip			RingMCP			RingPIP			RingTip			PinkyMCP			PinkyPIP			PinkyTip			BackHand1			BackHand2			BackHand3	
		X0	Y0	Z0	X1	Y1	Z1	X2	Y2	Z2	X3	Y3	Z3	X4	Y4	Z4	X5	Y5	Z5	X6	Y6	Z6	X7	Y7	Z7	X8	Y8	Z8	X9	Y9	Z9	X10	Y10	Z10	X11	Y11	Z11	X12	Y12	Z12	X13	Y13	Z13	X14	Y14	Z14	X15	Y15	Z15	X16	Y16	Z16	X17	Y17	Z17	X18	Y18	Z18	
146	1.21667	127.02	20.0781	58.7246	107.742	4.42134	47.4808	86.7654	0.993353	27.5004	69.2463	-1.78038	21.2995	157.219	0.885166	-21.2309	163.193	-6.76811	-38.0203	180.429	-14.1808	-61.4922	169.749	-30.8414	-9.59154	153.493	-61.6812	2.72357	141.419	-46.1344	39.445	182.787	-42.6162	10.5684	161.815	-61.9049	31.8388	154.015	-43.2273	56.981	197.784	-47.8955	26.9071	173.462	-55.2688	42.3676	162.2	-28.7105	56.574	195.641	12.4321	35.105	195.603	25.0509	70.2658	164.211	29.9648	48.426	
147	1.225	126.638	21.3198	62.2704	106.236	5.91761	51.3518	86.9135	2.31099	33.3344	68.4638	0.799698	23.9756	155.937	-5.05352	-14.3294	161.911	-14.0931	-36.4548	172.434	-23.0765	-59.9237	166.25	-39.7424	-6.24826	143.837	-65.3232	9.80646	133.938	-45.5565	42.8254	175.317	-48.407	13.8294	156.34	-65.2627	35.8203	149.972	-43.1748	61.5283	192.252	-49.128	29.1519	170.244	-59.5388	46.8213	159.081	-33.3507	63.6214	195.537	6.46968	38.9961	195.439	20.7318	68.9255	166.866	26.5324	50.1485	
148	1.23333	130.326	23.4579	65.2189	104.009	12.4569	52.1137	83.9203	11.637	33.4856	66.1798	11.9833	27.4787	150.527	-6.26418	-15.5698	156.014	-19.0097	-37.5578	161.638	-27.4402	-60.1539	155.632	-41.4568	-4.26698	136.635	-65.5799	10.6174	130.797	-44.441	46.9459	164.535	-53.5741	15.9679	146.158	-66.6853	39.8119	142.45	-41.0623	62.5982	182.057	-59.3042	32.1518	159.891	-61.9325	53.2703	156.912	-30.3271	64.6458	194.718	-2.86677	39.0792	197.332	16.1277	71.4336	169.944	25.0762	50.2033	
149	1.24167	131.019	29.1252	66.8355	108.645	19.5907	55.8275	85.1834	23.3282	35.2463	68.9635	22.8991	24.9242	149.01	-6.86168	-11.9208	149.844	-18.8329	-32.8268	155.169	-30.8843	-54.7169	147.958	-39.2046	-2.73553	123.036	-60.3227	12.3204	122.843	-40.2563	48.5289	154.575	-53.7085	16.9901	133.708	-63.1459	39.2071	137.209	-36.2508	65.376	169.457	-62.6259	33.6791	147.356	-61.6304	52.5621	150.064	-30.7881	65.4132	191.983	-7.12059	40.2493	200.176	8.20745	71.5369	168.18	23.4602	48.4198	
150	1.25	138.456	33.0499	67.0712	112.312	27.8461	51.1823	94.1805	33.2765	35.1598	76.2225	42.1567	23.8519	145.581	-2.17064	-12.5153	144.165	-12.4118	-34.4154	145.784	-28.0487	-61.1604	140.176	-39.3867	-2.67158	112.307	-53.5276	15.1105	117.116	-32.3345	48.5377	147.009	-53.1697	17.8922	120.263	-56.2792	42.6832	127.643	-33.3651	62.7818	159.411	-61.4856	33.1401	136.303	-60.7318	50.2528	143.152	-30.2498	67.1993	189.579	-13.3525	38.5086	199.161	1.48964	69.82	173.563	19.694	47.943	
151	1.25833	147.573	36.8703	63.0222	121.3	38.2612	51.0773	106.525	43.2389	28.6323	90.6036	54.452	19.1103	147.581	1.58995	-13.121	145.003	-12.0137	-34.1236	143.334	-25.7326	-61.4356	137.689	-33.7583	-2.7104	104.434	-41.9588	10.0404	108.227	-22.7127	43.9964	134.158	-53.7894	18.7486	110.656	-47.7883	42.3621	123.551	-28.469	62.4006	148.112	-64.9115	35.6023	124.162	-52.3005	52.2703	140.108	-26.8919	67.3258	187.436	-20.5182	40.8098	202.254	-10.5598	75.7037	179.728	15.5447	48.9303	
152	1.26667	159.5	34.499	64.1072	134.234	43.5068	49.8647	118.805	56.2243	25.0978	109.399	67.6652	16.8585	152.643	0.0762802	-13.2692	145.804	-7.47855	-37.338	140.134	-19.6238	-60.7965	130.563	-30.3368	-5.90261	99.829	-26.7023	7.86328	108.911	-14.7307	44.1736	129.836	-45.6642	17.9252	104.395	-35.3158	35.4943	119.096	-17.3599	60.1708	136.49	-57.2266	35.0501	115.758	-42.9375	54.9741	132.835	-21.726	66.6703	186.931	-32.0189	43.3329	198.13	-16.1054	76.7191	185.781	11.0855	51.2101	
153	1.275	171.155	36.3045	65.0071	147.45	48.248	46.7946	135.344	61.1793	22.5219	126.68	75.7758	15.8059	156.338	5.26233	-17.3737	148.052	-3.17779	-39.0522	139.019	-14.2281	-60.9696	134.828	-21.0637	-5.9038	98.7059	-15.7996	7.71132	109.09	0.451807	41.8516	121.755	-36.3112	15.9625	101.486	-22.2353	37.9344	119.601	-9.84762	62.4892	126.801	-50.9083	35.2215	111.193	-31.8955	53.066	133.761	-12.7826	65.7799	181.699	-35.551	42.8679	197.891	-26.7114	72.9266	191.279	3.54335	51.6456	
154	1.28333	178.712	32.6874	64.26	157.889	48.8712	45.1762	146.4	61.2898	23.4285	140.782	77.7833	12.2171	157.486	2.80677	-18.5016	148.086	0.647347	-41.1545	135.374	-8.78496	-61.9934	131.741	-18.5638	-5.51421	100.483	-7.56841	4.76775	110.592	8.16033	42.1148	121.81	-32.5449	17.4968	99.77	-16.7802	38.0289	118.921	-0.690881	61.6079	122.262	-46.4125	37.5407	107.357	-25.744	51.8312	127.863	-7.27699	69.8594	177.806	-35.4939	45.7883	194.312	-33.5518	77.1582	195.432	-0.309492	49.2984	
155	1.29167	184.351	30.3236	65.0061	164.981	49.5282	45.1065	154.44	63.1138	22.0412	147.255	74.9338	10.6026	158.332	3.98848	-17.0404	144.049	2.07344	-39.6638	133.407	-0.0939422	-57.9306	130.109	-11.4769	-6.56247	99.3752	0.729735	9.32767	113.657	13.5031	44.5015	119.956	-29.1361	19.9617	99.7178	-7.31124	39.9721	123.098	3.28617	63.8009	119.796	-41.8764	37.4066	107.036	-17.5871	55.0815	132.052	-2.61443	70.6781	174.353	-40.7196	42.9611	191.825	-36.0458	76.7412	195.363	-5.16768	51.0952	
156	1.3	187.495	31.4213	62.6238	167.261	47.9358	47.9698	156.403	60.6585	25.0433	151.162	75.5684	12.984	159.629	8.34799	-17.0756	144.851	7.32132	-40.133	130.698	5.3956	-57.5847	129.147	-10.245	-3.91751	103.53	8.51143	5.98841	117.353	15.4022	46.8041	116.763	-19.2643	17.2619	103.29	2.36139	40.6086	126.393	7.96886	63.2684	117.398	-36.7813	38.121	108.735	-12.2342	51.6164	134.083	0.270118	72.1435	172.497	-38.5095	41.9828	191.578	-34.9414	75.63	197.659	-8.39922	48.6143	
157	1.30833	190.762	31.8172	64.8028	170.511	48.9612	41.7187	160.064	61.6614	20.0453	152.746	74.5874	7.48651	162.387	8.21986	-14.0689	149.315	12.8805	-38.609	131.735	11.3096	-61.0565	129.445	-3.86729	-5.53825	104.485	13.0594	12.0869	120.451	18.6834	47.6288	117.488	-19.3241	19.7027	103.712	4.93192	38.2543	125.51	8.36522	65.5112	115.703	-33.3975	36.5675	108.529	-8.32606	50.5874	131.148	1.88053	70.2864	174.246	-38.9591	45.7514	193.213	-36.8417	75.2604	198.383	-6.28191	48.3952	
